<svg width="67" height="33" viewBox="0 0 67 33" fill="none" xmlns="http://www.w3.org/2000/svg">
<path d="M19.7213 19.7563C18.6048 11.4653 23.9053 3.76403 31.5589 2.55767C39.2078 1.35215 46.311 7.09057 47.4268 15.3765C40.1402 34.3321 43.7777 32.7135 35.9506 32.7354C34.9978 32.738 34.1167 32.7534 33.3 32.7716L27.8537 32.7801C23.373 32.4224 22.244 30.2293 19.7213 19.7563Z" fill="#FCFCFC"/>
<path d="M32.173 6.18214C37.8585 5.44437 43.0243 9.86975 43.752 16.1019C44.48 22.3335 40.4982 28.0462 34.8271 28.906C29.0771 29.7779 23.7834 25.3338 23.0451 19.0146C22.3072 12.6958 26.4082 6.92991 32.173 6.18214Z" fill="url(#paint0_linear_2452_8012)" fill-opacity="0.23"/>
<path d="M12.2769 0L15.8881 0.0508744L21.8061 17.0048L23.686 25.3094L28.5735 32.4277H23.686C22.9958 30.1715 21.5906 26.8402 20.7359 24.473L14.504 7.06113L14.0597 5.96764C12.8293 8.24769 10.5905 15.0892 9.59172 17.7392C7.75705 22.6084 5.87003 27.5311 4.04582 32.4057L0 32.4277C1.23289 28.7722 2.9859 24.5381 4.3574 20.8835C6.92996 13.8921 9.56994 6.93046 12.2769 0Z" fill="#FCFCFC"/>
<path d="M54.7231 0L51.1119 0.0508744L45.1939 17.0048L43.314 25.3094L38.4265 32.4277H43.314C44.0042 30.1715 45.4094 26.8402 46.2641 24.473L52.496 7.06113L52.9403 5.96764C54.1707 8.24769 56.4095 15.0892 57.4083 17.7392C59.2429 22.6084 61.13 27.5311 62.9542 32.4057L67 32.4277C65.7671 28.7722 64.0141 24.5381 62.6426 20.8835C60.07 13.8921 57.4301 6.93046 54.7231 0Z" fill="#FCFCFC"/>
<defs>
<linearGradient id="paint0_linear_2452_8012" x1="33.3985" y1="6.10181" x2="33.3985" y2="29.0152" gradientUnits="userSpaceOnUse">
<stop offset="0.0625"/>
<stop offset="0.605769" stop-color="#BBB8B8"/>
<stop offset="0.894231"/>
</linearGradient>
</defs>
</svg>
