<svg width="229" height="32" viewBox="0 0 229 32" fill="none" xmlns="http://www.w3.org/2000/svg">
<path d="M132.295 0.167542C140.71 -1.09506 148.524 4.91505 149.751 13.5933C150.979 22.272 145.156 30.3345 136.742 31.6045C128.324 32.8754 120.501 26.8644 119.273 18.1805C118.044 9.49696 123.875 1.43102 132.295 0.167542Z" fill="#FCFCFC"/>
<path d="M133.136 3.95929C139.465 3.18743 145.215 7.81728 146.025 14.3373C146.836 20.8569 142.403 26.8335 136.09 27.733C129.689 28.6452 123.796 23.9958 122.975 17.3846C122.153 10.7739 126.718 4.74161 133.136 3.95929Z" fill="url(#paint0_linear_2451_7147)" fill-opacity="0.23"/>
<path d="M168.282 0.410013C174.649 0.280135 184.284 -1.15199 186.629 6.98324C187.303 9.30971 187.064 11.8166 185.963 13.9631C184.441 16.8662 182.281 17.8934 179.432 18.7481L187.671 31.0198L183.089 31.0333C181.105 28.2409 179.161 25.1051 177.2 22.2539C176.296 20.9399 173.441 16.9577 172.888 15.757C173.351 15.4401 174.661 15.5085 175.341 15.4789C177.494 15.383 180.009 15.1847 181.353 13.6144C186.454 7.65225 180.281 3.23595 174.332 4.14291C173.381 4.28804 170.643 4.18084 169.728 4.1926C169.374 12.313 169.772 22.7333 169.694 31.0965L165.797 31.0446L165.754 0.478883L168.282 0.410013Z" fill="#FCFCFC"/>
<path d="M82.7504 0.375659C86.4739 0.337306 95.7633 -0.266309 98.5457 1.34104C106.751 6.08114 105.034 15.917 96.2395 18.6701C98.8741 22.845 101.785 26.825 104.35 31.0565L99.7056 31.0473C96.984 26.3608 92.7336 20.2631 89.6844 15.5753C92.4416 15.4903 95.9855 15.696 98.1067 13.7648C99.2184 12.7585 99.8734 11.3198 99.9144 9.79485C100.124 2.62106 91.1363 4.13688 86.5525 4.204L86.5415 31.0926L82.6215 31.1815C82.6798 21.0223 82.5019 10.51 82.7504 0.375659Z" fill="#FCFCFC"/>
<path d="M60.7723 0.29425L64.6293 0.303827L64.6204 3.94695C64.5702 9.09412 64.7265 14.2452 64.6564 19.3981C64.6057 23.117 63.589 26.7117 60.6442 29.1267C56.5387 32.4935 49.0955 32.4808 45.3141 28.588C43.9717 27.1868 43.0277 25.4326 42.5857 23.5162C41.9379 20.8154 42.1382 16.0086 42.1509 13.0929L42.1974 0.342611L45.98 0.324762L45.9864 13.1643C45.9627 19.0912 44.8375 27.6723 52.9513 27.7921C61.8557 27.9238 60.7596 19.6037 60.7537 13.3517L60.7723 0.29425Z" fill="#FCFCFC"/>
<path d="M213.232 0.307459L216.817 0.293945C220.967 9.78854 225.175 21.2518 229 31.0201L224.903 31.0602C221.653 23.4484 218.488 14.7949 215.447 7.02667L214.914 6.0465C213.78 8.40479 212.169 13.0673 211.13 15.7777L205.133 31.1404L201.029 31.0728C204.511 21.301 209.288 9.97595 213.232 0.307459Z" fill="#FCFCFC"/>
<path d="M12.3875 0.262604L16.0311 0.310964L28.0721 31.0484L23.8154 30.9678C23.119 28.8231 21.785 25.7766 20.9226 23.5264L14.6346 6.97485L14.1863 5.93538C12.9448 8.10277 10.6859 14.6062 9.6781 17.1254C7.82691 21.7539 5.92289 26.4334 4.08226 31.0672L0 31.0881C1.24399 27.6132 3.01278 23.5883 4.39664 20.1143C6.99237 13.4683 9.65612 6.85063 12.3875 0.262604Z" fill="#FCFCFC"/>
<defs>
<linearGradient id="paint0_linear_2451_7147" x1="134.5" y1="3.87524" x2="134.5" y2="27.8473" gradientUnits="userSpaceOnUse">
<stop offset="0.0625"/>
<stop offset="0.605769" stop-color="#BBB8B8"/>
<stop offset="0.894231"/>
</linearGradient>
</defs>
</svg>
