<svg width="303" height="80" viewBox="0 0 303 80" fill="none" xmlns="http://www.w3.org/2000/svg">
<path d="M175.045 0.221682C186.179 -1.44892 196.519 6.50332 198.143 17.9859C199.767 29.4691 192.062 40.1369 180.93 41.8173C169.79 43.4989 159.441 35.5455 157.815 24.0554C156.189 12.5658 163.905 1.89344 175.045 0.221682Z" fill="#FCFCFC"/>
<path d="M176.158 5.23871C184.532 4.21743 192.14 10.3434 193.212 18.9703C194.285 27.5967 188.42 35.5045 180.067 36.6948C171.598 37.9017 163.8 31.7498 162.713 23.0024C161.626 14.2555 167.667 6.27383 176.158 5.23871Z" fill="url(#paint0_linear_1422_1508)" fill-opacity="0.23"/>
<path d="M222.661 0.542523C231.086 0.370676 243.834 -1.52424 246.937 9.23985C247.829 12.3181 247.512 15.6351 246.055 18.4752C244.041 22.3164 241.184 23.6756 237.414 24.8064L248.315 41.0437L242.253 41.0615C239.629 37.3668 237.056 33.2177 234.461 29.4452C233.265 27.7065 229.487 22.4375 228.756 20.8487C229.368 20.4295 231.101 20.52 232.001 20.4808C234.85 20.354 238.178 20.0916 239.956 18.0139C246.706 10.125 238.538 4.28164 230.666 5.48169C229.408 5.67372 225.785 5.53186 224.574 5.54743C224.106 16.2919 224.632 30.0795 224.529 41.1452L219.374 41.0765L219.316 0.633648L222.661 0.542523Z" fill="#FCFCFC"/>
<path d="M109.491 0.497067C114.417 0.446321 126.709 -0.352349 130.39 1.7744C141.247 8.04624 138.975 21.0605 127.339 24.7033C130.825 30.2272 134.677 35.4933 138.07 41.0922L131.925 41.0801C128.324 34.8792 122.7 26.811 118.665 20.6084C122.314 20.4959 127.003 20.7681 129.809 18.2129C131.28 16.8814 132.147 14.9778 132.201 12.96C132.478 3.46806 120.587 5.47371 114.521 5.56252L114.507 41.1401L109.32 41.2577C109.397 27.8156 109.162 13.9063 109.491 0.497067Z" fill="#FCFCFC"/>
<path d="M80.4105 0.389343L85.5139 0.402014L85.5022 5.22239C85.4356 12.0328 85.6425 18.8485 85.5497 25.6664C85.4826 30.5871 84.1374 35.3435 80.2411 38.5388C74.8089 42.9936 64.9604 42.9769 59.9571 37.8261C58.1809 35.9721 56.9318 33.651 56.347 31.1154C55.4899 27.5417 55.7549 21.1817 55.7717 17.3238L55.8332 0.453331L60.8382 0.429714L60.8466 17.4183C60.8153 25.2604 59.3264 36.6144 70.0622 36.773C81.844 36.9472 80.3937 25.9386 80.3859 17.6663L80.4105 0.389343Z" fill="#FCFCFC"/>
<path d="M282.137 0.406796L286.88 0.388916C292.372 12.9516 297.94 28.1192 303 41.044L297.579 41.0971C293.28 31.0256 289.091 19.5758 285.067 9.29728L284.362 8.00038C282.862 11.1207 280.73 17.2899 279.355 20.8762L271.421 41.2032L265.99 41.1138C270.597 28.1843 276.918 13.1996 282.137 0.406796Z" fill="#FCFCFC"/>
<path d="M16.3904 0.347473L21.2115 0.411461L37.1435 41.0816L31.5112 40.9749C30.5898 38.1371 28.8247 34.1062 27.6836 31.1289L19.3637 9.22874L18.7705 7.85338C17.1279 10.7211 14.139 19.3262 12.8055 22.6593C10.3561 28.7835 7.83684 34.9752 5.40142 41.1064L0 41.134C1.64598 36.5363 3.98635 31.2107 5.81739 26.6141C9.25191 17.8205 12.7764 9.06439 16.3904 0.347473Z" fill="#FCFCFC"/>
<path d="M111.862 58.243C115.943 57.3876 119.9 60.2479 120.756 64.6719C121.612 69.0958 119.051 73.4503 115.001 74.4577C112.319 75.125 109.514 74.1652 107.665 71.9479C105.815 69.7299 105.21 66.5997 106.08 63.759C106.95 60.919 109.161 58.8098 111.862 58.243Z" fill="#FCFCFC"/>
<path d="M111.139 60.2964C114.203 58.986 117.666 60.6048 118.902 63.9246C120.138 67.2452 118.687 71.0299 115.65 72.4106C113.655 73.3159 111.368 72.9864 109.659 71.5475C107.95 70.1079 107.083 67.781 107.39 65.4534C107.696 63.1258 109.127 61.1564 111.139 60.2964Z" fill="#D9D9D9"/>
<path d="M268.319 58.3035C272.408 57.272 276.485 60.0591 277.407 64.514C278.328 68.969 275.74 73.3884 271.639 74.3618C267.577 75.3261 263.561 72.5413 262.648 68.1271C261.736 63.713 264.269 59.3253 268.319 58.3035Z" fill="#FCFCFC"/>
<path d="M36.7108 58.5338C40.2591 58.3449 43.449 57.9701 46.6202 60.1405C50.7568 62.9714 50.3554 67.9991 47.7009 71.9024C44.3339 74.8595 40.9119 74.2262 36.699 74.1167L36.7108 58.5338Z" fill="#FCFCFC"/>
<path d="M38.4543 60.0174C41.2136 59.9327 43.1388 59.6614 45.5905 61.4018C49.0624 63.8655 48.4206 67.8594 46.2864 71.1649C43.3159 72.9227 41.8838 72.6129 38.507 72.5834C38.3674 68.6711 38.4577 63.9811 38.4543 60.0174Z" fill="#D7D3D3"/>
<path d="M151.525 58.5941C155.018 58.4861 161.645 57.7795 162.602 62.6644C163.195 65.6979 159.815 67.5977 157.603 68.0391L153.258 68.2166C153.288 69.9034 153.532 72.6119 152.707 73.9049L152.312 73.8127C151.192 71.2486 151.528 61.8815 151.525 58.5941Z" fill="#FCFCFC"/>
<path d="M153.233 60.0614C157.22 59.9767 162.033 59.2558 159.951 65.5448C157.718 66.6754 155.653 66.5439 153.208 66.6308L153.233 60.0614Z" fill="white"/>
<path d="M127.916 58.5188C128.439 58.4901 129.531 58.3609 129.917 58.6707C132.265 60.5539 134.737 69.0671 135.66 71.7816C137.168 68.6424 139.899 59.7128 142.529 58.6125L143.129 59.0493C144.119 61.3074 144.474 72.5797 143.345 74.1856L142.554 74.1765C141.893 72.6983 142.207 64.7844 142.24 62.6223C142.22 62.0669 142.264 62.4123 141.971 61.618C140.783 63.072 136.952 72.52 135.575 75.3018C133.411 70.7327 131.876 65.349 129.66 60.9953C129.678 63.2715 129.853 72.4436 129.251 73.8772L128.58 74.0163C127.588 72.4248 127.909 61.2417 127.916 58.5188Z" fill="#FCFCFC"/>
<path d="M246.34 69.6657C245.861 71.3268 245.592 72.9591 244.513 74.1584C243.536 74.3723 243.956 74.4993 243.19 73.9483C243.438 72.1399 248.22 60.0855 249.243 58.2665L249.734 58.0602C251.832 59.6578 256.432 71.2837 256.112 73.8168C254.479 73.6604 254.075 71.159 253.38 69.8509L246.34 69.6657Z" fill="#FCFCFC"/>
<path d="M247.115 68.3524C247.708 65.8041 248.896 62.785 249.801 60.2904C250.714 62.4253 252.845 66.3429 252.223 68.3516C252.736 69.6462 252.335 69.1905 253.377 69.851L246.337 69.6658C247.043 69.0393 246.729 69.3869 247.115 68.3524Z" fill="url(#paint1_linear_1422_1508)" fill-opacity="0.2"/>
<path d="M247.115 68.3526C248.663 68.3254 250.721 68.2226 252.223 68.3518C252.736 69.6464 252.335 69.1907 253.377 69.8512L246.337 69.666C247.043 69.0395 246.729 69.3871 247.115 68.3526Z" fill="#E4E5EC"/>
<path d="M58.2017 69.7552C57.603 71.6407 57.3377 73.406 55.7993 74.3212L55.2041 73.9864C55.1471 72.2143 60.2102 59.946 61.5597 58.2766C63.7113 59.2522 68.6049 71.8153 68.2424 74.0129C66.563 73.5058 63.2319 62.4187 62.3971 61.001C60.5649 61.1627 60.1484 69.7824 58.2017 69.7552Z" fill="#FCFCFC"/>
<path d="M65.5233 68.1803V68.936C63.6911 69.0977 60.6707 68.9632 58.7239 68.936V68.1803H62.1965H65.5233Z" fill="#E4E5EC"/>
<path d="M209.959 58.3624C210.47 58.3979 210.856 58.5015 211.359 58.605C212.742 60.9515 216.425 70.6859 217.392 73.6491L217.07 74.2574C214.75 74.0035 216.841 69.9514 210.743 69.6869L207.068 69.7375C206.534 71.1605 205.653 73.8599 204.257 74.3587C204.527 70.958 208.363 61.4934 209.959 58.3624Z" fill="#FCFCFC"/>
<path d="M210.472 60.7186C211.471 61.7925 213.45 66.5566 213.013 68.1919L211.773 68.3317C210.217 68.4096 209.135 68.863 208.298 67.3909C208.262 65.7351 209.828 62.4613 210.472 60.7186Z" fill="white"/>
<path d="M90.6513 58.2242C94.5045 57.9642 97.482 58.7993 98.9842 62.9512L98.7085 63.4832C96.061 63.2157 96.5832 60.0697 92.7474 59.6284C91.216 59.4379 89.6852 59.985 88.5559 61.1262C84.2326 65.4232 86.2988 72.9493 93.4037 72.9705C96.3367 71.9337 97.1048 69.4489 99.0113 69.4882C98.4064 74.0625 92.439 75.5142 88.872 73.6552C87.0468 72.7 85.673 70.9573 85.0827 68.8496C84.4354 66.6474 84.6423 64.2533 85.6556 62.2219C86.8613 59.8029 88.3816 59.0253 90.6513 58.2242Z" fill="#FCFCFC"/>
<path d="M228.707 58.274C231.992 57.9747 235.819 58.5786 237.014 62.54C235.875 62.9141 231.783 59.6078 230.638 59.6766C222.55 60.1603 222.76 73.0105 231.781 72.8744C233.749 72.0507 235.805 69.4458 237.117 69.5576C236.068 75.3328 227.013 76.6235 224.066 69.844C223.15 67.7877 223.035 65.4163 223.748 63.267C224.71 60.4149 226.319 59.4136 228.707 58.274Z" fill="#FCFCFC"/>
<path d="M169.118 58.274L170.203 58.5333C172.424 61.9846 167.47 74.2869 176.066 72.842C181.394 71.9457 177.445 61.773 179.504 58.5159L180.232 58.6663L180.459 59.5996L180.489 61.9559C180.522 64.7793 180.951 71.9722 178.881 73.0649C166.823 79.4273 168.962 62.9247 169.118 58.274Z" fill="#FCFCFC"/>
<path d="M186.525 58.6847C189.285 58.4368 196.669 58.1459 199.032 59.1306C197.847 60.2982 195.154 60.0624 193.596 60.0102L193.596 69.1211C193.647 71.3399 193.672 71.822 193.192 73.9585L192.566 74.2955L193.084 74.2328L192.473 74.1013C191.542 71.4299 191.884 63.4049 191.902 60.0722C189.811 60.0865 187.311 60.846 186.525 58.6847Z" fill="#FCFCFC"/>
<path d="M229.676 74.7302C231.153 75.4013 231.821 75.7383 232.343 77.4523C231.956 78.9305 232.051 78.4877 230.824 79.6855C229.72 79.532 229.272 79.554 228.286 78.9577L228.202 78.3055C229.194 76.8621 229.264 76.4941 229.676 74.7302Z" fill="#FCFCFC"/>
<path d="M247.944 54.577C249.92 55.3766 250.535 55.1521 252.506 55.4741L252.675 55.9842L251.861 57.4027C249.611 56.384 249.65 56.5328 247.159 56.6303L246.947 56.161L247.944 54.577Z" fill="#FCFCFC"/>
<defs>
<linearGradient id="paint0_linear_1422_1508" x1="177.963" y1="5.1275" x2="177.963" y2="36.846" gradientUnits="userSpaceOnUse">
<stop offset="0.0625"/>
<stop offset="0.605769" stop-color="#BBB8B8"/>
<stop offset="0.894231"/>
</linearGradient>
<linearGradient id="paint1_linear_1422_1508" x1="249.857" y1="60.2904" x2="249.857" y2="69.851" gradientUnits="userSpaceOnUse">
<stop/>
<stop offset="0.519231" stop-color="#5A5A5A"/>
<stop offset="0.802885" stop-color="#666666"/>
</linearGradient>
</defs>
</svg>
